<?xml version="1.0" encoding="utf-8"?>
<svg xmlns="http://www.w3.org/2000/svg" height="128" width="128" viewBox="0 0 128 128">
  <g>
    <path id="path1" transform="rotate(0,64,64) translate(3.61177389985043,0) scale(3.99975015293597,3.99975015293597)  " fill="#FFFFFF" d="M16.673034,18.741997C17.237032,18.741997 17.69503,19.474 17.69503,20.377003 17.69503,21.280005 17.237032,22.012007 16.673034,22.012007 16.108036,22.012007 15.651037,21.280005 15.651037,20.377003 15.651037,19.474 16.108036,18.741997 16.673034,18.741997z M13.289034,18.741997C13.853039,18.741997 14.311045,19.474 14.311045,20.377003 14.311045,21.280005 13.853039,22.012007 13.289034,22.012007 12.724026,22.012007 12.267021,21.280005 12.267021,20.377003 12.267021,19.474 12.724026,18.741997 13.289034,18.741997z M15.098036,16.029001C12.679036,16.029001 10.710036,17.979001 10.710036,20.377001 10.710036,22.773001 12.679036,24.723 15.098036,24.723 17.517036,24.723 19.486036,22.773001 19.486036,20.377001 19.486036,17.979001 17.517036,16.029001 15.098036,16.029001z M15.098036,15.029001C18.069036,15.029001 20.486036,17.428001 20.486036,20.377001 20.486036,23.325001 18.069036,25.723 15.098036,25.723 12.127036,25.723 9.710036,23.325001 9.710036,20.377001 9.710036,17.428001 12.127036,15.029001 15.098036,15.029001z M20.831033,12.361007C21.454038,12.361007 21.959043,12.861005 21.959043,13.479003 21.959043,14.097001 21.454038,14.597 20.831033,14.597 20.208029,14.597 19.703026,14.097001 19.703026,13.479003 19.703026,12.861005 20.208029,12.361007 20.831033,12.361007z M8.1810319,12.361007C8.8040283,12.361007 9.3090255,12.861005 9.3090255,13.479003 9.3090255,14.097001 8.8040283,14.597 8.1810319,14.597 7.5580351,14.597 7.0530374,14.097001 7.0530374,13.479003 7.0530374,12.861005 7.5580351,12.361007 8.1810319,12.361007z M15.097999,4.0399975C7.8760111,4.0399978 2.0000013,9.8629947 2.0000009,17.020998 2.0000013,24.179001 7.8760111,30.001999 15.097999,30.001999 22.320019,30.001999 28.195997,24.179001 28.195997,17.020998 28.195997,9.8629947 22.320019,4.0399978 15.097999,4.0399975z M25.349027,2.260072C24.586277,2.2915725,23.738029,3.0351906,22.927046,3.8918701L22.733146,4.1017756 22.920919,4.2120535C24.269886,5.0262537,25.480766,6.0442629,26.509805,7.2226524L26.627323,7.3605113 26.719173,7.2504683C28.264805,5.373091 28.418148,4.4284277 27.005024,3.0940655 26.387026,2.5110705 25.828026,2.2500729 25.349027,2.260072z M5.25613,2.0020145C4.7970545,2.0067324 4.2704127,2.2922671 3.6910369,2.8388435 2.3283777,4.1255953 2.4222979,5.0499735 3.8166203,6.7977462L3.9355161,6.9443703 4.173887,6.6903262C5.2578418,5.5623126,6.5169065,4.6013606,7.9073245,3.8509002L7.9474699,3.8298537 7.7690289,3.6366758C6.9580428,2.7799671 6.109791,2.036323 5.3470399,2.0048214 5.3170397,2.0026347 5.2867353,2.0017011 5.25613,2.0020145z M5.2352064,8.8214874E-06C5.3010356,-0.00014710426 5.3669774,0.0017707348 5.4330399,0.0057723522 7.0614178,0.075772762 8.3873737,1.3417115 9.5609701,2.6278433L9.8668382,2.9677168 9.9121597,2.9505868C11.530072,2.3616089 13.276902,2.0399982 15.097999,2.0399975 17.049175,2.0399982 18.915094,2.4091942 20.628542,3.0808692L20.86915,3.1785913 21.135111,2.883073C22.308702,1.5969851 23.634653,0.33109057 25.263027,0.26109254 25.329214,0.25696623 25.395265,0.25493896 25.461189,0.25500202 26.450056,0.25592721 27.410524,0.72689939 28.378023,1.6390773 31.357769,4.4529588 29.560083,7.0418077 27.951626,8.8965344L27.851192,9.0113583 28.007099,9.2589269C29.395675,11.524107 30.195999,14.181626 30.195999,17.020998 30.195999,25.281998 23.423015,32.001999 15.097999,32.001999 6.7729833,32.001999 3.7533755E-07,25.281998 0,17.020998 4.77703E-07,13.923501 0.95245116,11.042424 2.5820286,8.6510367L2.6586149,8.5415001 2.5775673,8.447042C1.0176722,6.6079092 -0.55897148,4.1007509 2.3180334,1.3838066 3.2855358,0.47159541 4.2477643,0.0023646355 5.2352064,8.8214874E-06z" />
  </g>
</svg>
